<svg width="512" height="512" viewBox="0 0 512 512" fill="none" xmlns="http://www.w3.org/2000/svg">
<g filter="url(#filter0_d_9:12)">
<path d="M115.759 284.293C108.766 279.688 103.925 275.546 100.849 271.013C97.7349 266.425 96.5 261.546 96.5 255.63C96.5 253.22 97.1536 250.55 99.1374 246.407C101.114 242.279 104.465 236.578 109.971 228.079C120.989 211.069 140.776 182.64 175.842 132.759C197.532 101.762 217.425 73.6035 231.99 53.1929C239.272 42.988 245.225 34.7167 249.405 28.9948C251.494 26.1351 253.145 23.9057 254.299 22.3884C254.875 21.6318 255.336 21.0402 255.67 20.6326C255.835 20.4321 255.985 20.2556 256.111 20.1211C256.171 20.0576 256.253 19.9737 256.344 19.8955C256.388 19.8584 256.468 19.7926 256.574 19.7279C256.62 19.7 256.932 19.5 257.378 19.5H257.42L257.461 19.5023C258.375 19.5529 259.447 20.0135 260.463 20.553C261.544 21.1266 262.795 21.92 264.139 22.8569C266.829 24.7337 269.987 27.2556 273.052 29.9352C276.117 32.6153 279.116 35.4776 281.485 38.0426C282.669 39.3243 283.71 40.5479 284.527 41.6492C285.316 42.7125 285.968 43.7552 286.296 44.6777C287.522 47.7707 288.209 50.7741 288.134 54.0676C288.059 57.3605 287.224 60.8507 285.533 64.9203C282.174 73.003 275.318 83.6329 263.808 99.9112L263.808 99.9119L242.797 129.59L261.939 130.891C284.389 132.382 297.492 135.627 312.594 143.402L115.759 284.293ZM115.759 284.293C115.761 284.294 115.763 284.296 115.765 284.297L115.759 284.293ZM312.595 143.403L313.097 143.66C316.919 145.621 319.86 147.131 322.007 148.41C324.195 149.715 325.831 150.93 326.68 152.373C327.637 154.002 327.456 155.641 326.792 157.309C326.214 158.756 325.176 160.462 323.936 162.501C323.826 162.681 323.714 162.864 323.601 163.05L323.596 163.06L323.59 163.069C321.034 167.144 318.31 170.261 314.841 172.805C311.385 175.339 307.259 177.252 301.971 179.008L301.95 179.015L301.928 179.021C301.061 179.281 299.911 179.332 298.694 179.284C297.436 179.235 295.957 179.072 294.355 178.819C291.152 178.313 287.368 177.433 283.714 176.303C274.269 173.531 262.195 172.668 250.427 173.554C238.644 174.441 227.335 177.066 219.396 181.142L219.388 181.146L219.38 181.15C214.147 183.757 204.747 191.392 196.563 199.084C192.495 202.906 188.786 206.688 186.105 209.789C184.761 211.343 183.7 212.697 182.984 213.782C182.716 214.188 182.508 214.54 182.353 214.838C182.362 214.84 182.37 214.842 182.379 214.844C183.272 215.037 184.621 215.224 186.354 215.392C189.803 215.726 194.592 215.972 199.9 216.095C223.767 216.347 244.596 222.875 270.295 238.29L270.303 238.294C280.358 244.403 294.321 250.25 301.811 251.94C327.099 257.022 354.867 249.267 375.095 230.811L375.106 230.802L375.117 230.792L385.527 221.654L386.419 220.871L387.387 221.559L397.79 228.964C397.791 228.964 397.792 228.965 397.793 228.966C404.278 233.528 409.457 239.248 412.707 245.082C415.938 250.883 417.349 256.969 415.979 262.174C415.921 262.409 415.818 262.64 415.739 262.807C415.646 263.006 415.526 263.236 415.388 263.488C415.11 263.995 414.727 264.648 414.25 265.431C413.294 266.999 411.932 269.141 410.217 271.778C406.785 277.055 401.917 284.354 396.009 293.103C384.192 310.602 368.201 333.924 351.19 358.516C317.172 407.693 279.049 461.986 262.055 484.976L262.047 484.987L256.842 491.902L255.974 493.055L254.789 492.233L243.391 484.332C243.39 484.332 243.389 484.331 243.388 484.33C236.564 479.633 232.179 475.965 229.553 471.758C226.886 467.486 226.134 462.83 226.134 456.423C226.134 452.131 227.24 448.174 230.719 441.839C234.172 435.553 240.045 426.78 249.701 412.842L249.704 412.837L312.595 143.403Z" fill="url(#paint0_linear_9:12)" stroke="white" stroke-width="3"/>
</g>
<defs>
<filter id="filter0_d_9:12" x="-4" y="0" width="520" height="520" filterUnits="userSpaceOnUse" color-interpolation-filters="sRGB">
<feFlood flood-opacity="0" result="BackgroundImageFix"/>
<feColorMatrix in="SourceAlpha" type="matrix" values="0 0 0 0 0 0 0 0 0 0 0 0 0 0 0 0 0 0 127 0" result="hardAlpha"/>
<feOffset dy="4"/>
<feGaussianBlur stdDeviation="2"/>
<feComposite in2="hardAlpha" operator="out"/>
<feColorMatrix type="matrix" values="0 0 0 0 0 0 0 0 0 0 0 0 0 0 0 0 0 0 0.25 0"/>
<feBlend mode="normal" in2="BackgroundImageFix" result="effect1_dropShadow_9:12"/>
<feBlend mode="normal" in="SourceGraphic" in2="effect1_dropShadow_9:12" result="shape"/>
</filter>
<linearGradient id="paint0_linear_9:12" x1="387.387" y1="356.399" x2="137.452" y2="139.876" gradientUnits="userSpaceOnUse">
<stop stop-color="#00B7FF"/>
<stop offset="1" stop-color="#0192CB"/>
</linearGradient>
</defs>
</svg>
